<svg xmlns="http://www.w3.org/2000/svg" width="87" height="87" viewBox="0 0 87 87">
  <g id="Group_61" data-name="Group 61" transform="translate(-400 -137)">
    <path id="Path_260" data-name="Path 260" d="M61.512,0H9.346A9.356,9.356,0,0,0,0,9.346v4.248H61.512Z" transform="translate(400 137)" fill="#fff"/>
    <path id="Path_261" data-name="Path 261" d="M403.045,0H392V13.594h20.391V9.346A9.356,9.356,0,0,0,403.045,0Z" transform="translate(74.609 137)" fill="#fff"/>
    <path id="Path_262" data-name="Path 262" d="M156.293,243.5,141,249.872v6.8l15.293,6.372Z" transform="translate(282.959 -65.124)" fill="#fff"/>
    <path id="Path_263" data-name="Path 263" d="M83.549,291.1H86.1V286H83.549a2.549,2.549,0,0,0,0,5.1Z" transform="translate(332.764 -100.402)" fill="#fff"/>
    <path id="Path_264" data-name="Path 264" d="M0,168.963a9.356,9.356,0,0,0,9.346,9.346H77.654A9.356,9.356,0,0,0,87,168.963V110H0Zm55.395-39.252H75.785a2.549,2.549,0,0,1,0,5.1H55.395a2.549,2.549,0,0,1,0-5.1Zm0,10.2H75.785a2.549,2.549,0,0,1,0,5.1H55.395a2.549,2.549,0,0,1,0-5.1Zm0,10.2H75.785a2.549,2.549,0,0,1,0,5.1H55.395a2.549,2.549,0,0,1,0-5.1ZM16.313,134.809H20.9l18.352-7.646v-.85a2.549,2.549,0,0,1,5.1,0V158.6a2.549,2.549,0,0,1-5.1,0v-.85l-15.293-6.372V162a2.549,2.549,0,0,1-5.1,0V150.1H16.313a7.646,7.646,0,0,1,0-15.293Z" transform="translate(400 45.691)" fill="#fff"/>
  </g>
</svg>
