<?xml version="1.0"?>
<svg xmlns="http://www.w3.org/2000/svg" xmlns:xlink="http://www.w3.org/1999/xlink" xmlns:svgjs="http://svgjs.com/svgjs" version="1.1" width="512" height="512" x="0" y="0" viewBox="0 0 509.99 509.99" style="enable-background:new 0 0 512 512" xml:space="preserve" class=""><g><path xmlns="http://www.w3.org/2000/svg" d="m10 487.135h29.44v-464.28h-29.44c-5.523 0-10 4.477-10 10v444.28c0 5.523 4.477 10 10 10z" fill="#fc284f" data-original="#000000" style="" class=""/><path xmlns="http://www.w3.org/2000/svg" d="m301.87 412.745-95.83 32.48c-11.874 3.981-22.954-7.358-19.03-19l32.37-95.87c.923-2.769 2.77-5.139 3.77-5.97l149.72-149.91v-141.62c0-5.523-4.477-10-10-10h-293.43v464.28h293.43c5.523 0 10-4.477 10-10v-133.28l-65.2 65.28c-1.011 1.101-3.148 2.694-5.8 3.61zm-180.34-248.03v-81.25c0-8.29 6.71-15 15-15h169.25c8.29 0 15 6.71 15 15v81.25c0 8.28-6.71 15-15 15h-169.25c-8.29 0-15-6.72-15-15z" fill="#fc284f" data-original="#000000" style="" class=""/><path xmlns="http://www.w3.org/2000/svg" d="m151.53 98.465h139.25v51.25h-139.25z" fill="#fc284f" data-original="#000000" style="" class=""/><path xmlns="http://www.w3.org/2000/svg" d="m254.8 335.135 42.24 42.19c127.153-127.304 102.38-102.496 173.01-173.21l-42.24-42.19c-9.237 9.248-37.854 37.894-173.01 173.21z" fill="#fc284f" data-original="#000000" style="" class=""/><path xmlns="http://www.w3.org/2000/svg" d="m501.24 130.635c-11.64-11.63-30.58-11.62-42.21.03l-10.03 10.03.01.01 42.24 42.18 10.02-10.03c11.632-11.652 11.63-30.58-.03-42.22z" fill="#fc284f" data-original="#000000" style="" class=""/><path xmlns="http://www.w3.org/2000/svg" d="m240.08 362.825-14.94 44.25 44.23-14.99z" fill="#fc284f" data-original="#000000" style="" class=""/></g></svg>
