<svg xmlns="http://www.w3.org/2000/svg" xmlns:xlink="http://www.w3.org/1999/xlink" width="277" height="277" viewBox="0 0 277 277">
  <defs>
    <filter id="Ellipse_3" x="0" y="0" width="277" height="277" filterUnits="userSpaceOnUse">
      <feOffset dx="5" dy="10" input="SourceAlpha"/>
      <feGaussianBlur stdDeviation="15" result="blur"/>
      <feFlood flood-opacity="0.161"/>
      <feComposite operator="in" in2="blur"/>
      <feComposite in="SourceGraphic"/>
    </filter>
  </defs>
  <g id="Group_62" data-name="Group 62" transform="translate(-310 -52)">
    <g transform="matrix(1, 0, 0, 1, 310, 52)" filter="url(#Ellipse_3)">
      <circle id="Ellipse_3-2" data-name="Ellipse 3" cx="93.5" cy="93.5" r="93.5" transform="translate(40 35)" fill="#fff"/>
    </g>
    <g id="Group_60" data-name="Group 60">
      <path id="Path_260" data-name="Path 260" d="M61.512,0H9.346A9.356,9.356,0,0,0,0,9.346v4.248H61.512Z" transform="translate(400 137)" fill="#1542b0"/>
      <path id="Path_261" data-name="Path 261" d="M403.045,0H392V13.594h20.391V9.346A9.356,9.356,0,0,0,403.045,0Z" transform="translate(74.609 137)" fill="#1542b0"/>
      <path id="Path_262" data-name="Path 262" d="M156.293,243.5,141,249.872v6.8l15.293,6.372Z" transform="translate(282.959 -65.124)" fill="#1542b0"/>
      <path id="Path_263" data-name="Path 263" d="M83.549,291.1H86.1V286H83.549a2.549,2.549,0,0,0,0,5.1Z" transform="translate(332.764 -100.402)" fill="#1542b0"/>
      <path id="Path_264" data-name="Path 264" d="M0,168.963a9.356,9.356,0,0,0,9.346,9.346H77.654A9.356,9.356,0,0,0,87,168.963V110H0Zm55.395-39.252H75.785a2.549,2.549,0,0,1,0,5.1H55.395a2.549,2.549,0,0,1,0-5.1Zm0,10.2H75.785a2.549,2.549,0,0,1,0,5.1H55.395a2.549,2.549,0,0,1,0-5.1Zm0,10.2H75.785a2.549,2.549,0,0,1,0,5.1H55.395a2.549,2.549,0,0,1,0-5.1ZM16.313,134.809H20.9l18.352-7.646v-.85a2.549,2.549,0,0,1,5.1,0V158.6a2.549,2.549,0,0,1-5.1,0v-.85l-15.293-6.372V162a2.549,2.549,0,0,1-5.1,0V150.1H16.313a7.646,7.646,0,0,1,0-15.293Z" transform="translate(400 45.691)" fill="#1542b0"/>
    </g>
  </g>
</svg>
