<?xml version="1.0"?>
<svg xmlns="http://www.w3.org/2000/svg" xmlns:xlink="http://www.w3.org/1999/xlink" xmlns:svgjs="http://svgjs.com/svgjs" version="1.1" width="512" height="512" x="0" y="0" viewBox="0 0 512 512" style="enable-background:new 0 0 512 512" xml:space="preserve" class=""><g><g xmlns="http://www.w3.org/2000/svg"><path d="m191 217h116.23l17.32-66h-133.55z" fill="#1542b0" data-original="#000000" style="" class=""/><path d="m450.96 5h-389.92c-33.66 0-61.04 27.38-61.04 61.04v274.96h512v-274.96c0-33.66-27.38-61.04-61.04-61.04zm-242.96 302h-24c-8.28 0-15-6.72-15-15s6.72-15 15-15h24c8.28 0 15 6.72 15 15s-6.72 15-15 15zm104 0h-24c-8.28 0-15-6.72-15-15s6.72-15 15-15h24c8.28 0 15 6.72 15 15s-6.72 15-15 15zm44.09-157.98-21.34 81.31c-2.58 9.81-11.47 16.67-21.62 16.67h-129.78c-12.32 0-22.35-10.03-22.35-22.35v-125.65h-32.42c-8.29 0-15-6.72-15-15s6.71-15 15-15h47.42c8.28 0 15 6.72 15 15v37h143.47c14.66 0 25.34 13.86 21.62 28.02z" fill="#1542b0" data-original="#000000" style="" class=""/><path d="m61.04 435h98.569v42h-47.609c-8.284 0-15 6.716-15 15s6.716 15 15 15h288c8.284 0 15-6.716 15-15s-6.716-15-15-15h-47.609v-42h98.569c31.312 0 61.04-24.019 61.04-64h-512c0 39.673 29.481 64 61.04 64z" fill="#1542b0" data-original="#000000" style="" class=""/></g></g></svg>
