<?xml version="1.0"?>
<svg xmlns="http://www.w3.org/2000/svg" xmlns:xlink="http://www.w3.org/1999/xlink" xmlns:svgjs="http://svgjs.com/svgjs" version="1.1" width="512" height="512" x="0" y="0" viewBox="0 0 512 512" style="enable-background:new 0 0 512 512" xml:space="preserve" class=""><g><path xmlns="http://www.w3.org/2000/svg" d="m257.90625 166.128906c-9.8125.050782-19.585938 1.164063-29.050781 3.308594-4.039063.917969-6.574219 4.933594-5.65625 8.972656.898437 3.96875 5.007812 6.558594 8.972656 5.65625 8.402344-1.90625 17.089844-2.894531 25.8125-2.9375 4.140625-.023437 7.480469-3.398437 7.460937-7.539062-.023437-4.144532-3.367187-7.496094-7.539062-7.460938zm0 0" fill="#fc284f" data-original="#000000" style="" class=""/><path xmlns="http://www.w3.org/2000/svg" d="m331.277344 143.460938c-3.308594 2.488281-3.976563 7.191406-1.488282 10.503906 2.40625 3.195312 7.226563 3.949218 10.503907 1.484375 6.75-5.074219 13.050781-10.902344 18.773437-17.363281 5.578125 2.273437 11.671875 3.539062 18.058594 3.539062 26.46875 0 48-21.53125 48-48s-21.53125-48-48-48-48 21.53125-48 48c0 14.609375 6.566406 27.703125 16.894531 36.515625-4.558593 4.910156-9.5 9.378906-14.742187 13.320313zm45.847656-82.835938c18.195312 0 33 14.804688 33 33s-14.804688 33-33 33-33-14.804688-33-33 14.804688-33 33-33zm0 0" fill="#fc284f" data-original="#000000" style="" class=""/><path xmlns="http://www.w3.org/2000/svg" d="m174.453125 204.058594c2.320313 3.246094 7.09375 4.144531 10.460937 1.734375 7.320313-5.234375 14.933594-9.703125 22.632813-13.28125 3.757813-1.742188 5.386719-6.203125 3.644531-9.960938-1.746094-3.753906-6.207031-5.386719-9.960937-3.640625-8.546875 3.96875-16.96875 8.90625-25.042969 14.683594-3.371094 2.410156-4.144531 7.09375-1.734375 10.464844zm0 0" fill="#fc284f" data-original="#000000" style="" class=""/><path xmlns="http://www.w3.org/2000/svg" d="m285.453125 178.738281c.457031.003907.917969-.03125 1.375-.117187 9.804687-1.816406 19.238281-4.652344 28.035156-8.433594 3.804688-1.636719 5.5625-6.046875 3.929688-9.851562-1.636719-3.808594-6.046875-5.566407-9.851563-3.933594-7.777344 3.34375-16.136718 5.855468-24.84375 7.46875-4.074218.753906-6.761718 4.667968-6.007812 8.738281.648437 3.496094 3.894531 6.082031 7.363281 6.128906zm0 0" fill="#fc284f" data-original="#000000" style="" class=""/><path xmlns="http://www.w3.org/2000/svg" d="m164.679688 222.886719c2.953124-2.90625 2.996093-7.652344.09375-10.609375-2.902344-2.953125-7.652344-2.996094-10.605469-.09375-5.6875 5.585937-11.203125 11.675781-16.445313 18.140625-5.988281-2.691407-12.617187-4.199219-19.597656-4.199219-26.464844 0-48 21.53125-48 48s21.535156 48 48 48c26.46875 0 48-21.53125 48-48 0-14.078125-6.089844-26.757812-15.773438-35.546875 4.589844-5.578125 9.394532-10.847656 14.328126-15.691406zm-46.554688 84.238281c-18.195312 0-33-14.804688-33-33s14.804688-33 33-33 33 14.804688 33 33-14.804688 33-33 33zm0 0" fill="#fc284f" data-original="#000000" style="" class=""/><path xmlns="http://www.w3.org/2000/svg" d="m182.65625 106.59375c2.898438 2.898438 7.710938 2.894531 10.605469 0l15.863281-15.863281s15.84375 15.84375 15.863281 15.863281c2.894531 2.894531 7.722657 2.886719 10.605469 0 2.929688-2.929688 2.929688-7.675781 0-10.605469l-15.863281-15.863281 15.863281-15.863281c2.929688-2.929688 2.929688-7.675781 0-10.605469s-7.679688-2.929688-10.605469 0l-15.863281 15.863281-15.863281-15.863281c-2.929688-2.929688-7.679688-2.929688-10.605469 0-2.929688 2.929688-2.929688 7.679688 0 10.605469l15.863281 15.863281-15.863281 15.863281c-2.929688 2.929688-2.929688 7.675781 0 10.605469zm0 0" fill="#fc284f" data-original="#000000" style="" class=""/><path xmlns="http://www.w3.org/2000/svg" d="m253.320312 251.988281c-2.925781 2.929688-2.925781 7.675781 0 10.605469l15.863282 15.863281-15.863282 15.863281c-2.925781 2.929688-2.925781 7.679688 0 10.609376 2.902344 2.898437 7.710938 2.894531 10.609376 0l15.863281-15.867188 15.863281 15.867188c2.890625 2.890624 7.710938 2.890624 10.605469 0 2.929687-2.929688 2.929687-7.679688 0-10.609376l-15.863281-15.863281 15.863281-15.863281c2.929687-2.929688 2.929687-7.675781 0-10.605469-2.929688-2.929687-7.679688-2.929687-10.605469 0l-15.863281 15.863281-15.863281-15.863281c-2.929688-2.929687-7.679688-2.929687-10.609376 0zm0 0" fill="#fc284f" data-original="#000000" style="" class=""/><path xmlns="http://www.w3.org/2000/svg" d="m450.09375 209.65625c-2.929688-2.929688-7.675781-2.929688-10.605469 0l-15.863281 15.863281-15.863281-15.863281c-2.929688-2.929688-7.675781-2.929688-10.605469 0s-2.929688 7.675781 0 10.605469l15.863281 15.863281-15.863281 15.863281c-2.929688 2.929688-2.929688 7.675781 0 10.605469 2.804688 2.804688 7.65625 2.949219 10.605469 0l15.863281-15.863281s15.855469 15.855469 15.863281 15.863281c2.804688 2.800781 7.660157 2.949219 10.609375 0 2.925782-2.929688 2.925782-7.675781 0-10.605469l-15.863281-15.863281 15.863281-15.863281c2.925782-2.929688 2.925782-7.675781-.003906-10.605469zm0 0" fill="#fc284f" data-original="#000000" style="" class=""/><path xmlns="http://www.w3.org/2000/svg" d="m61.90625 173.34375c2.898438 2.898438 7.707031 2.902344 10.605469 0l15.863281-15.863281s15.855469 15.855469 15.863281 15.863281c2.800781 2.804688 7.652344 2.953125 10.605469 0 2.929688-2.929688 2.929688-7.675781 0-10.605469l-15.863281-15.863281 15.863281-15.863281c2.929688-2.929688 2.929688-7.675781 0-10.605469s-7.679688-2.929688-10.605469 0l-15.863281 15.863281-15.863281-15.863281c-2.929688-2.929688-7.675781-2.929688-10.605469 0s-2.929688 7.675781 0 10.605469l15.863281 15.863281-15.863281 15.863281c-2.929688 2.929688-2.929688 7.675781 0 10.605469zm0 0" fill="#fc284f" data-original="#000000" style="" class=""/><path xmlns="http://www.w3.org/2000/svg" d="m24.09375 430.355469h463.8125c13.285156 0 24.09375-10.804688 24.09375-24.089844v-26.328125c0-10.664062-6.96875-19.726562-16.59375-22.886719v-312.164062c0-24.75-20.132812-44.886719-44.882812-44.886719h-310.753907c-4.140625 0-7.5 3.359375-7.5 7.5s3.359375 7.5 7.5 7.5h310.753907c16.480468 0 29.886718 13.40625 29.886718 29.886719v310.960937h-51.851562c-4.140625 0-7.5 3.359375-7.5 7.5s3.359375 7.5 7.5 7.5h59.347656c5.015625 0 9.09375 4.078125 9.09375 9.09375v26.324219c0 5.011719-4.078125 9.09375-9.09375 9.09375h-463.8125c-5.015625 0-9.09375-4.082031-9.09375-9.09375v-26.324219c0-5.015625 4.078125-9.09375 9.09375-9.09375h375.058594c4.140625 0 7.5-3.359375 7.5-7.5s-3.359375-7.5-7.5-7.5h-367.558594v-310.960937c0-16.480469 13.40625-29.886719 29.882812-29.886719h48.519532c4.144531 0 7.5-3.359375 7.5-7.5s-3.355469-7.5-7.5-7.5h-48.519532c-24.75 0-44.882812 20.136719-44.882812 44.886719v312.164062c-9.625 3.160157-16.59375 12.222657-16.59375 22.890625v26.324219c0 13.285156 10.808594 24.089844 24.09375 24.089844zm0 0" fill="#fc284f" data-original="#000000" style="" class=""/></g></svg>
