<?xml version="1.0"?>
<svg xmlns="http://www.w3.org/2000/svg" xmlns:xlink="http://www.w3.org/1999/xlink" xmlns:svgjs="http://svgjs.com/svgjs" version="1.1" width="512" height="512" x="0" y="0" viewBox="0 0 397.36264 397" style="enable-background:new 0 0 512 512" xml:space="preserve" class=""><g><path xmlns="http://www.w3.org/2000/svg" d="m385.003906 163.480469c-7.585937-49.636719-10.425781-68.207031-18.976562-122.839844-2.992188-19.101563-19.734375-32.429687-37.320313-29.714844l-.863281.132813c-8.546875 1.363281-16.132812 6.25-20.90625 13.46875-5.167969 7.695312-7.210938 17.066406-5.714844 26.210937l.007813.050781 3.839843 24.90625c.589844 3.824219-2.03125 7.398438-5.851562 7.988282s-7.394531-2.03125-7.984375-5.851563l-7.109375-46.09375c-1.328125-9.171875-6.097656-17.492187-13.34375-23.273437-6.726562-5.445313-15.429688-7.820313-23.988281-6.542969-17.679688 2.726563-29.609375 20.445313-26.734375 39.554687l7.554687 48.992188c.589844 3.820312-2.03125 7.394531-5.851562 7.984375-3.820313.585937-7.394531-2.03125-7.984375-5.851563l-7.523438-48.792968-.007812-.0625-.027344-.171875-2.039062-13.242188c-1.328126-9.167969-6.101563-17.492187-13.347657-23.269531-6.726562-5.445312-15.429687-7.820312-23.988281-6.542969l-.917969.140625c-17.203125 2.652344-28.992187 19.667969-26.804687 38.285156l10.8125 70.144532c.558594 3.804687-2.058594 7.347656-5.859375 7.933594-3.800781.585937-7.359375-2.003907-7.976563-5.800782l-10.515625-68.179687c-.046875-.191407-.085937-.386719-.117187-.585938-.082032-.539062-.15625-1.074219-.222656-1.613281l-1.3125-8.5c-1.328126-9.171875-6.097657-17.492188-13.34375-23.269531-6.726563-5.445313-15.429688-7.820313-23.988282-6.546875-17.628906 2.71875-29.574218 20.5-26.632812 39.652344l5.792968 37.976562c.007813.070312.019532.140625.03125.207031l11.453126 75.101563c.53125 3.796875-2.085938 7.316406-5.878907 7.894531-3.789062.578125-7.339843-2-7.960937-5.785156l-9.449219-61.933594-33.078125 31.449219c-23.433594 22.289062-27.65625 58.117187-10.042969 85.242187l80.386719 123.765625c22.839844 31.019532 59.347656 46.84375 95.324219 41.296875l126.308593-19.476562c54.90625-8.464844 92.210938-63.429688 83.15625-122.523438-4.6875-30.59375-8.171874-53.402343-11.003906-71.914062zm0 0" fill="#fc284f" data-original="#000000" style="" class=""/></g></svg>
