<svg xmlns="http://www.w3.org/2000/svg" width="75.273" height="94" viewBox="0 0 75.273 94">
  <g id="insurance" transform="translate(-51)">
    <path id="Path_265" data-name="Path 265" d="M95.068,16.523H82.205A37.675,37.675,0,0,1,67.523,26.8V43.649A36,36,0,0,0,88.637,76.526,36,36,0,0,0,109.75,43.649V26.8A37.647,37.647,0,0,1,95.068,16.523Zm8.368,23.689L86.3,57.348a2.751,2.751,0,0,1-3.894,0l-8.568-8.566a2.755,2.755,0,0,1,3.9-3.9l6.62,6.62L99.542,36.319a2.753,2.753,0,0,1,3.894,3.894ZM123.5,12.852A21.288,21.288,0,0,1,104.63,1.469,2.752,2.752,0,0,0,102.195,0H75.078a2.757,2.757,0,0,0-2.436,1.469A21.289,21.289,0,0,1,53.754,12.852,2.755,2.755,0,0,0,51,15.605V43.649A52.667,52.667,0,0,0,87.807,93.871a2.744,2.744,0,0,0,1.66,0,52.667,52.667,0,0,0,36.807-50.222V15.605a2.769,2.769,0,0,0-2.77-2.754Zm-8.245,30.673A41.5,41.5,0,0,1,89.7,81.947a2.763,2.763,0,0,1-2.119,0A41.5,41.5,0,0,1,62.016,43.525V24.739a2.753,2.753,0,0,1,1.895-2.616A32.18,32.18,0,0,0,78.8,11.9a2.755,2.755,0,0,1,2.133-1.012H96.344A3.388,3.388,0,0,1,98.477,11.9a32.18,32.18,0,0,0,14.886,10.221,2.748,2.748,0,0,1,1.713,1.638c0,.007.006.017.009.024a2.786,2.786,0,0,1,.147.591c0,.02.005.042.007.062a2.707,2.707,0,0,1,.018.3Z" fill="#1542b0"/>
  </g>
</svg>
