<?xml version="1.0" encoding="UTF-8" standalone="no"?>
<svg
   xmlns:dc="http://purl.org/dc/elements/1.1/"
   xmlns:cc="http://creativecommons.org/ns#"
   xmlns:rdf="http://www.w3.org/1999/02/22-rdf-syntax-ns#"
   xmlns:svg="http://www.w3.org/2000/svg"
   xmlns="http://www.w3.org/2000/svg"
   xmlns:sodipodi="http://sodipodi.sourceforge.net/DTD/sodipodi-0.dtd"
   xmlns:inkscape="http://www.inkscape.org/namespaces/inkscape"
   version="1.1"
   id="svg2"
   xml:space="preserve"
   width="252"
   height="233.33333"
   viewBox="0 0 252 233.33333"
   sodipodi:docname="Logo.ai"><metadata
     id="metadata8"><rdf:RDF><cc:Work
         rdf:about=""><dc:format>image/svg+xml</dc:format><dc:type
           rdf:resource="http://purl.org/dc/dcmitype/StillImage" /></cc:Work></rdf:RDF></metadata><defs
     id="defs6"><clipPath
       clipPathUnits="userSpaceOnUse"
       id="clipPath18"><path
         d="M 0,175 H 189 V 0 H 0 Z"
         id="path16" /></clipPath></defs><sodipodi:namedview
     pagecolor="#ffffff"
     bordercolor="#666666"
     borderopacity="1"
     objecttolerance="10"
     gridtolerance="10"
     guidetolerance="10"
     inkscape:pageopacity="0"
     inkscape:pageshadow="2"
     inkscape:window-width="640"
     inkscape:window-height="480"
     id="namedview4" /><g
     id="g10"
     inkscape:groupmode="layer"
     inkscape:label="Logo"
     transform="matrix(1.3333333,0,0,-1.3333333,0,233.33333)"><g
       id="g12"><g
         id="g14"
         clip-path="url(#clipPath18)"><g
           id="g20"
           transform="translate(35.1338,105.9478)"><path
             d="M 0,0 3.299,5.175 -0.449,2.421 c 0,0 -27.277,49.752 -17.355,56.314 7.713,5.102 20.343,1.372 34.777,-12.534 -18.634,20.381 -35.835,25.809 -46.35,18.707 -13.453,-9.087 0.647,-40.45 22.681,-75.012"
             style="fill:#53c6cc;fill-opacity:1;fill-rule:nonzero;stroke:none"
             id="path22" /></g><g
           id="g24"
           transform="translate(108.6592,53.3389)"><path
             d="M 0,0 C -1.054,-3.394 -3.55,-5.739 -6.984,-7.977 -18.701,-15.61 -41.671,5.595 -62.999,36.599 l 13.978,21.397 14.845,4.029 H -59.835 L -70.237,47.456 c -0.008,0.012 -0.016,0.024 -0.024,0.037 l -3.136,-4.464 -3.774,-5.285 0.056,-0.004 -0.017,-0.024 c 0.742,-1.137 1.492,-2.277 2.248,-3.418 C -50.93,-1.846 -24.087,-26.477 -9.515,-16.767 -3.212,-12.567 0.587,-8.193 0,0"
             style="fill:#53c6cc;fill-opacity:1;fill-rule:nonzero;stroke:none"
             id="path26" /></g><g
           id="g28"
           transform="translate(27.8301,61.2891)"><path
             d="M 0,0 H -26.507 L -15.904,2.12 0,23.326 10.603,9.543 H 6.362 Z"
             style="fill:#53c6cc;fill-opacity:1;fill-rule:nonzero;stroke:none"
             id="path30" /></g><text
           transform="matrix(1,0,0,-1,74.394,66.6787)"
           style="font-variant:normal;font-weight:normal;font-stretch:normal;font-size:118.752px;font-family:'Microsoft Himalaya';-inkscape-font-specification:Microsoft-Himalaya;writing-mode:lr-tb;fill:#000000;fill-opacity:1;fill-rule:nonzero;stroke:none"
           id="text34"><tspan
             x="0 57.476017"
             y="0"
             sodipodi:role="line"
             id="tspan32">QA</tspan></text><text
           transform="matrix(1,0,0,-1,11.1396,9.1064)"
           style="font-variant:normal;font-weight:normal;font-stretch:normal;font-size:26.5072px;font-family:Arial;-inkscape-font-specification:ArialMT;writing-mode:lr-tb;fill:#000000;fill-opacity:1;fill-rule:nonzero;stroke:none"
           id="text38"><tspan
             x="0 17.680302 30.933903 45.671906 60.409908 69.236809 76.605804 89.859406"
             y="0"
             sodipodi:role="line"
             id="tspan36">Experts </tspan></text><text
           transform="matrix(1,0,0,-1,108.3667,9.1064)"
           style="font-variant:normal;font-weight:normal;font-stretch:normal;font-size:35px;font-family:'Bradley Hand ITC';-inkscape-font-specification:BradleyHandITC;writing-mode:lr-tb;fill:#000000;fill-opacity:1;fill-rule:nonzero;stroke:none"
           id="text42"><tspan
             x="0 8.8900003"
             y="0"
             sodipodi:role="line"
             id="tspan40">in</tspan></text><text
           transform="matrix(1,0,0,-1,142.812,7.9521)"
           style="font-variant:normal;font-weight:bold;font-stretch:normal;font-size:26.5072px;font-family:'Bell MT';-inkscape-font-specification:BellMTBold;writing-mode:lr-tb;fill:#4abcbc;fill-opacity:1;fill-rule:nonzero;stroke:none"
           id="text46"><tspan
             x="0 19.721357"
             y="0"
             sodipodi:role="line"
             id="tspan44">QA</tspan></text></g></g></g></svg>
