<?xml version="1.0"?>
<svg xmlns="http://www.w3.org/2000/svg" xmlns:xlink="http://www.w3.org/1999/xlink" xmlns:svgjs="http://svgjs.com/svgjs" version="1.1" width="512" height="512" x="0" y="0" viewBox="0 0 64 64" style="enable-background:new 0 0 512 512" xml:space="preserve" class=""><g><g xmlns="http://www.w3.org/2000/svg"><path d="m50 57h-12v4h-3v2h18v-2h-3z" fill="#fc284f" data-original="#000000" style="" class=""/><path d="m18.524 20.944c-.265.035-.533.055-.803.055h-5.721c-1.103 0-2 .897-2 2v2h-1c-.552 0-1 .448-1 1 0 .378.146.733.413.999l1.001 1.001c.379.38.586.882.586 1.415v9.675c.802.135 1.55.429 2.211.85.747-.132 1.4-.576 1.789-1.231v-1.708-2h1.586c.645 0 1.251-.251 1.707-.707s.707-1.063.707-1.707v-3.307l2.979-.993c-.203-3.336-1.76-6.21-2.455-7.342z" fill="#fc284f" data-original="#000000" style="" class=""/><path d="m13 44.999c0-2.206-1.794-4-4-4s-4 1.794-4 4v6.002l8-.002z" fill="#fc284f" data-original="#000000" style="" class=""/><path d="m30.005 57h-1.005c-.003 0-.006-.001-.01-.001h-2.609l-.741-1.481c-.271-.542-1.075-.673-1.5-.244l-1.727 1.726h-9.413c-1.103 0-2-.897-2-2v-2h-4l-.001 3.94c0 1.062.413 2.059 1.163 2.808.821.82 1.858 1.252 2.954 1.252l16.887-.001c1.652 0 2.997-1.346 2.997-3 0-.55-.446-.996-.995-.999z" fill="#fc284f" data-original="#000000" style="" class=""/><path d="m13 52.999v2h7.956c-.208-5.385-2.265-10.43-5.872-14.421-.357.37-.77.68-1.226.913.715.988 1.142 2.198 1.142 3.508v6c0 1.103-.897 2-2 2z" fill="#fc284f" data-original="#000000" style="" class=""/><circle cx="55" cy="27" r="1" fill="#fc284f" data-original="#000000" style="" class=""/><path d="m27 53c0 1.099.892 1.994 1.99 1.999h1.01c.003 0 .006.001.01.001h28.99c1.103 0 2-.897 2-2v-2h-34z" fill="#fc284f" data-original="#000000" style="" class=""/><path d="m59.923 25.28.715-.415-.987-1.724-.676.396c-.582.34-1.294.356-1.89.053l-.024-.012c-.018-.01-.035-.02-.053-.029l-.012-.006c-.635-.37-1.013-1.029-1.013-1.734v-.809h-1.967v.809c0 .705-.378 1.364-.986 1.719l-.107.059c-.598.306-1.313.291-1.896-.048l-.678-.396-.987 1.724.714.414c.608.354.985 1.012.983 1.717.002.713-.375 1.37-.982 1.724l-.715.415.987 1.724.676-.396c.614-.359 1.379-.357 1.996.004.617.36.995 1.02.995 1.725v.806h1.967v-.809c0-.705.378-1.364.986-1.719.626-.366 1.389-.367 2.003-.011l.678.396.987-1.724-.715-.415c-.607-.354-.984-1.011-.982-1.716-.002-.711.375-1.368.983-1.722zm-4.923 4.72c-1.654 0-3-1.346-3-3s1.346-3 3-3 3 1.346 3 3-1.346 3-3 3z" fill="#fc284f" data-original="#000000" style="" class=""/><path d="m6.451 29.95 1.549 1.106v-1.642l-1-1.001c-.645-.644-1-1.501-1-2.414 0-1.304.836-2.416 2-2.829v-.171c0-2.206 1.794-4 4-4h5.722c.373 0 .743-.051 1.1-.15 1.282-.359 2.178-1.539 2.178-2.87 0-1.643-1.337-2.979-2.979-2.979h-8.021c-2.757 0-5 2.243-5 5v.414l-.293.293c-1.101 1.101-1.707 2.564-1.707 4.121v.415c0 2.656 1.29 5.163 3.451 6.707z" fill="#fc284f" data-original="#000000" style="" class=""/><path d="m60.383 33.603-2.418-1.413.018 2.81h-5.967v-2.809l-2.399 1.411-2.979-5.198 2.417-1.404h-20.055c-1.103 0-2 .897-2 2v20h34v-16.474zm-19.383-4.603h4v2h-4zm-6 0h4v2h-4zm17 18h-23v-18h2v10.838l1.419-4.257c.515-1.544 1.954-2.581 3.581-2.581s3.066 1.037 3.581 2.581l.957 2.871.084-.135c.517-.825 1.405-1.317 2.378-1.317s1.861.492 2.378 1.317l4.176 6.683h2.446zm7-4h-7v-2h7zm0-4h-7v-2h7z" fill="#fc284f" data-original="#000000" style="" class=""/><path d="m37.685 36.214c-.243-.726-.919-1.214-1.685-1.214s-1.442.488-1.685 1.214l-2.928 8.786h5.059l2.718-4.349z" fill="#fc284f" data-original="#000000" style="" class=""/><path d="m42.317 39.378-3.513 5.622h8.392l-3.513-5.622c-.297-.473-1.069-.473-1.366 0z" fill="#fc284f" data-original="#000000" style="" class=""/><path d="m38 23h6v-15h3l-6-6-6 6h3z" fill="#fc284f" data-original="#000000" style="" class=""/><path d="m51 17h6v-3h3l-6-6-6 6h3z" fill="#fc284f" data-original="#000000" style="" class=""/><path d="m25 23h6v-11h3l-6-6-6 6h3z" fill="#fc284f" data-original="#000000" style="" class=""/></g></g></svg>
