<svg xmlns="http://www.w3.org/2000/svg" xmlns:xlink="http://www.w3.org/1999/xlink" width="329" height="332" viewBox="0 0 329 332">
  <defs>
    <filter id="Ellipse_9" x="0" y="0" width="329" height="332" filterUnits="userSpaceOnUse">
      <feOffset input="SourceAlpha"/>
      <feGaussianBlur stdDeviation="15" result="blur"/>
      <feFlood flood-color="#0f6fd5" flood-opacity="0.149"/>
      <feComposite operator="in" in2="blur"/>
      <feComposite in="SourceGraphic"/>
    </filter>
  </defs>
  <g id="Group_54" data-name="Group 54" transform="translate(-17001 -533)">
    <g transform="matrix(1, 0, 0, 1, 17001, 533)" filter="url(#Ellipse_9)">
      <ellipse id="Ellipse_9-2" data-name="Ellipse 9" cx="119.5" cy="121" rx="119.5" ry="121" transform="translate(45 45)" fill="#f1f7fc"/>
    </g>
    <g id="Ellipse_10" data-name="Ellipse 10" transform="translate(17087 620)" fill="none" stroke="#0f6fd5" stroke-width="3">
      <circle cx="79" cy="79" r="79" stroke="none"/>
      <circle cx="79" cy="79" r="77.5" fill="none"/>
    </g>
    <circle id="Ellipse_11" data-name="Ellipse 11" cx="79" cy="79" r="79" transform="translate(17074 620)" fill="#0f6fd5" opacity="0.05"/>
    <g id="tick" transform="translate(17120.002 652.999)">
      <path id="Path_239" data-name="Path 239" d="M170.03,150.724a2.7,2.7,0,0,0-3.812,0L151.3,165.643,147.16,161.5a2.7,2.7,0,0,0-3.811,0l-7.623,7.623a2.7,2.7,0,0,0,0,3.812l13.668,13.668a2.7,2.7,0,0,0,3.812,0l24.449-24.449a2.7,2.7,0,0,0,0-3.812ZM151.3,180.89l-9.856-9.856,3.811-3.811,4.139,4.139a2.7,2.7,0,0,0,3.811,0l14.92-14.919,3.811,3.811Z" transform="translate(-110.691 -122.993)" fill="#0f4ebc"/>
      <path id="Path_240" data-name="Path 240" d="M87.187,37.8a36.255,36.255,0,0,0,1.346-8.218,2.7,2.7,0,0,0-.85-2.053,36.257,36.257,0,0,0-6.768-4.862,36.256,36.256,0,0,0-1.9-8.114,2.694,2.694,0,0,0-1.571-1.571,36.253,36.253,0,0,0-8.114-1.9,36.255,36.255,0,0,0-4.862-6.768,2.691,2.691,0,0,0-2.053-.85A36.248,36.248,0,0,0,54.2,4.811,40.666,40.666,0,0,0,47.189.279a2.7,2.7,0,0,0-2.384,0A40.666,40.666,0,0,0,37.8,4.811a36.26,36.26,0,0,0-8.218-1.347,2.694,2.694,0,0,0-2.053.85,36.253,36.253,0,0,0-4.862,6.768,36.253,36.253,0,0,0-8.114,1.9,2.7,2.7,0,0,0-1.571,1.571,36.245,36.245,0,0,0-1.9,8.114,36.256,36.256,0,0,0-6.768,4.862,2.7,2.7,0,0,0-.85,2.053A36.247,36.247,0,0,0,4.808,37.8,40.674,40.674,0,0,0,.276,44.808a2.7,2.7,0,0,0,0,2.384A40.644,40.644,0,0,0,4.808,54.2a36.269,36.269,0,0,0-1.347,8.218,2.7,2.7,0,0,0,.85,2.053A36.266,36.266,0,0,0,11.08,69.33a36.256,36.256,0,0,0,1.9,8.114,2.7,2.7,0,0,0,1.571,1.571,36.27,36.27,0,0,0,8.113,1.9,36.245,36.245,0,0,0,4.862,6.768,2.7,2.7,0,0,0,2.053.85A36.266,36.266,0,0,0,37.8,87.188,40.688,40.688,0,0,0,44.8,91.721a2.7,2.7,0,0,0,2.384,0A40.687,40.687,0,0,0,54.2,87.188a36.267,36.267,0,0,0,8.217,1.347,2.711,2.711,0,0,0,2.053-.85,36.232,36.232,0,0,0,4.862-6.768,36.27,36.27,0,0,0,8.113-1.9,2.7,2.7,0,0,0,1.571-1.571,36.245,36.245,0,0,0,1.9-8.114,36.266,36.266,0,0,0,6.768-4.861,2.7,2.7,0,0,0,.85-2.053A36.267,36.267,0,0,0,87.186,54.2a40.646,40.646,0,0,0,4.532-7.007,2.7,2.7,0,0,0,0-2.384A40.621,40.621,0,0,0,87.187,37.8ZM81.618,54.541a27.618,27.618,0,0,1,1.44,6.812,27.468,27.468,0,0,1-5.833,3.8,2.7,2.7,0,0,0-1.586,2.374,27.611,27.611,0,0,1-1.277,6.845,27.461,27.461,0,0,1-6.842,1.274,2.7,2.7,0,0,0-2.374,1.586,27.6,27.6,0,0,1-3.8,5.833,27.623,27.623,0,0,1-6.81-1.44,2.7,2.7,0,0,0-2.8.557A31.244,31.244,0,0,1,46,86.246a31.109,31.109,0,0,1-5.739-4.069,2.7,2.7,0,0,0-2.8-.557,27.621,27.621,0,0,1-6.81,1.44,27.607,27.607,0,0,1-3.8-5.833,2.7,2.7,0,0,0-2.374-1.586,27.612,27.612,0,0,1-6.843-1.276,27.613,27.613,0,0,1-1.276-6.842,2.7,2.7,0,0,0-1.586-2.374,27.619,27.619,0,0,1-5.833-3.8,27.613,27.613,0,0,1,1.439-6.81,2.7,2.7,0,0,0-.557-2.8A31.247,31.247,0,0,1,5.751,46,31.092,31.092,0,0,1,9.82,40.259a2.7,2.7,0,0,0,.557-2.8,27.611,27.611,0,0,1-1.44-6.81,27.627,27.627,0,0,1,5.833-3.8,2.7,2.7,0,0,0,1.586-2.374,27.608,27.608,0,0,1,1.277-6.844,27.447,27.447,0,0,1,6.842-1.274,2.7,2.7,0,0,0,2.374-1.586,27.615,27.615,0,0,1,3.8-5.833,27.614,27.614,0,0,1,6.81,1.44,2.7,2.7,0,0,0,2.8-.557A31.248,31.248,0,0,1,46,5.754a31.1,31.1,0,0,1,5.739,4.069,2.7,2.7,0,0,0,2.8.557A27.614,27.614,0,0,1,61.35,8.94a27.446,27.446,0,0,1,3.8,5.833,2.7,2.7,0,0,0,2.374,1.586,27.621,27.621,0,0,1,6.844,1.277,27.454,27.454,0,0,1,1.274,6.842,2.7,2.7,0,0,0,1.586,2.374,27.63,27.63,0,0,1,5.833,3.8,27.61,27.61,0,0,1-1.439,6.81,2.7,2.7,0,0,0,.557,2.8A31.26,31.26,0,0,1,86.244,46a31.081,31.081,0,0,1-4.069,5.739A2.7,2.7,0,0,0,81.618,54.541Z" transform="translate(0)" fill="#0f4ebc"/>
    </g>
  </g>
</svg>
