<svg xmlns="http://www.w3.org/2000/svg" width="38" height="38.101" viewBox="0 0 38 38.101">
  <path id="puzzle" d="M9.327,23.479a4.085,4.085,0,0,1-4.149,3.9,4.048,4.048,0,0,1-2.53-1.012,1.724,1.724,0,0,0-1.214-.455H.624V36.735A1.253,1.253,0,0,0,1.889,38H12.768v-.81a2,2,0,0,0-.506-1.265,4.046,4.046,0,0,1-1.012-2.631v-.506a.642.642,0,0,1,.051-.3.186.186,0,0,1,.051-.152c0-.1.051-.152.051-.253,0-.051.051-.1.051-.152.051-.1.051-.152.1-.253,0-.051.051-.1.051-.152.051-.051.051-.152.1-.2,0-.051.051-.1.051-.152.051-.051.1-.152.152-.2s.051-.1.1-.1c.051-.051.1-.152.152-.2l.1-.1.152-.152c.051-.051.1-.051.1-.1a.7.7,0,0,1,.2-.152c.051-.051.1-.051.1-.1.051-.051.152-.1.2-.152s.1-.051.152-.1a.384.384,0,0,1,.2-.1c.051,0,.1-.051.152-.051.051-.051.152-.051.2-.1.051,0,.1-.051.152-.051a.384.384,0,0,0,.2-.1.186.186,0,0,0,.152-.051c.051,0,.152-.051.2-.051H15.7c.1,0,.152.051.253.051h.152a.718.718,0,0,1,.3.1h.051c.1.051.253.1.354.152h0a3.954,3.954,0,0,1,1.923,1.822v.051l.152.3a.157.157,0,0,0,.051.1c.051.1.051.152.1.253,0,.051.051.1.051.152s.051.152.051.2.051.1.051.152V34a.3.3,0,0,1-.051.2.186.186,0,0,1-.051.152c0,.051-.051.152-.051.2s-.051.1-.051.152-.051.1-.051.152-.051.1-.051.152-.051.1-.051.152-.051.1-.1.152-.051.1-.1.152-.051.1-.1.152-.051.1-.1.152-.051.1-.1.152l-.1.1a2,2,0,0,0-.506,1.265v.81H28.655a1.253,1.253,0,0,0,1.265-1.265V25.857h.81a1.813,1.813,0,0,1,1.214.455,3.784,3.784,0,0,0,2.53,1.012,4,4,0,1,0,.152-7.994,3.8,3.8,0,0,0-2.631,1.012,1.892,1.892,0,0,1-1.265.506h-.81V9.969A1.253,1.253,0,0,0,28.655,8.7H17.777v-.81a1.813,1.813,0,0,1,.455-1.214,3.784,3.784,0,0,0,1.012-2.53A3.974,3.974,0,1,0,11.3,4,3.8,3.8,0,0,0,12.312,6.63a1.892,1.892,0,0,1,.506,1.265V8.7H1.889A1.253,1.253,0,0,0,.624,9.969V20.848h.81A2,2,0,0,0,2.7,20.342,4.046,4.046,0,0,1,5.33,19.33,4.072,4.072,0,0,1,9.327,23.479Z" transform="translate(-0.624 0)" fill="#fc284f"/>
</svg>
