<svg xmlns="http://www.w3.org/2000/svg" xmlns:xlink="http://www.w3.org/1999/xlink" width="329" height="332" viewBox="0 0 329 332">
  <defs>
    <filter id="Ellipse_2" x="0" y="0" width="329" height="332" filterUnits="userSpaceOnUse">
      <feOffset input="SourceAlpha"/>
      <feGaussianBlur stdDeviation="15" result="blur"/>
      <feFlood flood-color="#0f6fd5" flood-opacity="0.149"/>
      <feComposite operator="in" in2="blur"/>
      <feComposite in="SourceGraphic"/>
    </filter>
  </defs>
  <g id="Group_54" data-name="Group 54" transform="translate(-17001 -233)">
    <g transform="matrix(1, 0, 0, 1, 17001, 233)" filter="url(#Ellipse_2)">
      <ellipse id="Ellipse_2-2" data-name="Ellipse 2" cx="119.5" cy="121" rx="119.5" ry="121" transform="translate(45 45)" fill="#f1f7fc"/>
    </g>
    <g id="review" transform="translate(17120.943 354)">
      <g id="Page-1_37_" transform="translate(0.057 0)">
        <g id="_x30_38---Cutomer-Satisfaction" transform="translate(0 0)">
          <path id="Shape_120_" d="M23.236,52.489A15.037,15.037,0,0,0,12.08,67v.231a3.075,3.075,0,0,0-2.089,1.611l-2.239,4.44L2.732,74A3.086,3.086,0,0,0,.207,76.117a3.038,3.038,0,0,0,.807,3.156l3.612,3.442-.852,4.862a3.049,3.049,0,0,0,1.21,3.006,3.125,3.125,0,0,0,3.307.263l4.5-2.313,4.5,2.313a3.12,3.12,0,0,0,3.3-.263A3.051,3.051,0,0,0,21.8,87.578l-.421-2.4H29.7l-.15.81a4.371,4.371,0,0,0,1.731,4.3,4.562,4.562,0,0,0,2.728.9,4.61,4.61,0,0,0,2.1-.507l9.063-4.6,9.018,4.6a4.57,4.57,0,0,0,4.825-.4,4.371,4.371,0,0,0,1.73-4.3l-.15-.81h8.327l-.421,2.4a3.051,3.051,0,0,0,1.211,3.006,3.122,3.122,0,0,0,3.307.263l4.5-2.313,4.5,2.313a3.123,3.123,0,0,0,3.307-.263,3.049,3.049,0,0,0,1.2-3.006l-.852-4.856,3.615-3.448a3.037,3.037,0,0,0,.807-3.156A3.085,3.085,0,0,0,87.562,74l-5.02-.712L80.3,68.844a3.077,3.077,0,0,0-2.091-1.611V67A15.037,15.037,0,0,0,67.056,52.489l-11.89-3.173a15.235,15.235,0,0,1-1.4-7.121c1.151-.969,2.181-1.894,2.983-2.641a6.03,6.03,0,0,0,1.919-4.4V33.882a5.989,5.989,0,0,0,1.42-11.044,8.837,8.837,0,0,0,1.586-5.3,12.254,12.254,0,0,0-8.529-11.6,4.337,4.337,0,0,1,.765-.591,1.5,1.5,0,0,0-.08-2.705,21.349,21.349,0,0,0-8.689-1.635A13.4,13.4,0,0,0,33.573,7.339a9.087,9.087,0,0,0-4.96,8.7,12.522,12.522,0,0,0,1.954,6.6,6,6,0,0,0,1.052,11.245V35.15a6.03,6.03,0,0,0,1.919,4.4c.8.751,1.832,1.671,2.983,2.641a15.284,15.284,0,0,1-1.395,7.121ZM18.584,80.814a2.277,2.277,0,0,0-.673,2.044l.918,5.239,1.482-.259-1.653.329-4.81-2.474a2.319,2.319,0,0,0-2.127,0l-4.81,2.474L7.6,89.5,6.736,88.1l.92-5.245A2.279,2.279,0,0,0,6.97,80.8l-3.815-3.83,5.378-.765a2.308,2.308,0,0,0,1.743-1.244l2.505-4.821c.078,0,.095.036.1.054l2.4,4.766a2.312,2.312,0,0,0,1.739,1.244l5.445.884Zm38.639,7.064a1.564,1.564,0,0,1-1.671.135l-9.018-4.595a3.071,3.071,0,0,0-2.773,0l-9.018,4.595a1.558,1.558,0,0,1-1.671-.135,1.363,1.363,0,0,1-.559-1.353l1.721-9.73a2.934,2.934,0,0,0-.882-2.656l-7.292-6.911a1.336,1.336,0,0,1-.38-1.417,1.467,1.467,0,0,1,1.235-1.005L37,63.386a3.006,3.006,0,0,0,2.268-1.61l4.509-8.854a1.571,1.571,0,0,1,2.753,0l4.509,8.854a3.018,3.018,0,0,0,2.269,1.61l10.083,1.42a1.467,1.467,0,0,1,1.235,1.005,1.336,1.336,0,0,1-.38,1.417l-7.3,6.893a2.932,2.932,0,0,0-.882,2.654l1.721,9.732a1.363,1.363,0,0,1-.565,1.356v.015ZM41.1,51.552a11.358,11.358,0,0,1-3.057-1.378,17.652,17.652,0,0,0,1.408-5.66c.183.137.359.278.543.412A6.053,6.053,0,0,0,43.554,46.1h3.183A6.044,6.044,0,0,0,50.3,44.926c.185-.134.361-.277.544-.412a17.614,17.614,0,0,0,1.408,5.66A11.36,11.36,0,0,1,49.2,51.552a4.572,4.572,0,0,0-8.1,0ZM77.61,70.2l2.4,4.766a2.313,2.313,0,0,0,1.739,1.245l5.447.884L83.322,80.8a2.286,2.286,0,0,0-.679,2.049l.92,5.239,1.48-.259-1.653.329-4.81-2.474a2.319,2.319,0,0,0-2.127,0l-4.81,2.474L72.33,89.5l-.861-1.407.917-5.236a2.282,2.282,0,0,0-.673-2.05l-3.824-3.83,5.378-.765A2.307,2.307,0,0,0,75,74.966l2.505-4.823C77.589,70.143,77.61,70.18,77.61,70.2ZM54.519,52.257,66.282,55.4A12.024,12.024,0,0,1,75.206,67v1.142a3.133,3.133,0,0,0-.484.7l-2.239,4.441L67.461,74a3.089,3.089,0,0,0-2.528,2.119,3.044,3.044,0,0,0,.807,3.156l3.04,2.895H60.063l-1.052-5.862,7.3-6.893a4.359,4.359,0,0,0,1.18-4.509,4.467,4.467,0,0,0-3.679-3.071l-10.094-1.42-3.132-6.152a13.768,13.768,0,0,0,3.938-2ZM35.1,9.947a1.534,1.534,0,0,0,.867-.751,10.37,10.37,0,0,1,9.179-5.184A21.124,21.124,0,0,1,50.3,4.6a7.876,7.876,0,0,0-.968,1.563,1.5,1.5,0,0,0,1.09,2.115c.335.063,8.248,1.632,8.248,9.258a6.464,6.464,0,0,1-.488,2.555,4.613,4.613,0,0,0-4.121-2.555H49.655a12.9,12.9,0,0,1-7.007-1.62,9.8,9.8,0,0,0-5.017-1.386,5.678,5.678,0,0,0-5.5,4.407,8.909,8.909,0,0,1-.508-2.9c0-4.79,3.352-6.044,3.481-6.089Zm.485,27.407a3.014,3.014,0,0,1-.96-2.2V32.568a1.5,1.5,0,0,0-1.5-1.5,3,3,0,0,1-1.5-5.594v1.085a1.5,1.5,0,1,0,3.006,0V22.048c0-.185.062-4.509,3.006-4.509a6.915,6.915,0,0,1,3.637,1.052,15.817,15.817,0,0,0,8.387,1.954h4.408a1.592,1.592,0,0,1,1.489.991,1.5,1.5,0,0,1,.114.513v4.509a1.5,1.5,0,1,0,3.006,0V25.471a3,3,0,0,1-1.5,5.594,1.5,1.5,0,0,0-1.5,1.5V35.15a3.015,3.015,0,0,1-.96,2.2,68.4,68.4,0,0,1-6.162,5.137,3.067,3.067,0,0,1-1.8.6H43.554a3.073,3.073,0,0,1-1.8-.6A68.591,68.591,0,0,1,35.586,37.354Zm4.127,16.907-3.134,6.147L26.5,61.828A4.467,4.467,0,0,0,22.816,64.9,4.359,4.359,0,0,0,24,69.408l7.283,6.837-1.054,5.922H21.509l3.047-2.9a3.043,3.043,0,0,0,.807-3.156,3.089,3.089,0,0,0-2.528-2.119l-5.02-.712-2.241-4.441a3.129,3.129,0,0,0-.487-.694V67a12.024,12.024,0,0,1,8.925-11.608l11.762-3.137a13.783,13.783,0,0,0,3.939,2Z" transform="translate(-0.057 -1)" fill="#104cba"/>
        </g>
      </g>
    </g>
    <g id="Ellipse_4" data-name="Ellipse 4" transform="translate(17087 320)" fill="none" stroke="#0f6fd5" stroke-width="3">
      <circle cx="79" cy="79" r="79" stroke="none"/>
      <circle cx="79" cy="79" r="77.5" fill="none"/>
    </g>
    <circle id="Ellipse_5" data-name="Ellipse 5" cx="79" cy="79" r="79" transform="translate(17074 320)" fill="#0f6fd5" opacity="0.05"/>
  </g>
</svg>
