<?xml version="1.0"?>
<svg xmlns="http://www.w3.org/2000/svg" xmlns:xlink="http://www.w3.org/1999/xlink" xmlns:svgjs="http://svgjs.com/svgjs" version="1.1" width="512" height="512" x="0" y="0" viewBox="0 0 447.216 447.216" style="enable-background:new 0 0 512 512" xml:space="preserve" class=""><g>
<g xmlns="http://www.w3.org/2000/svg">
	<g>
		<g>
			<path d="M218.906,78.89c1.825,2.597,5.409,3.223,8.006,1.398c0.543-0.382,1.016-0.855,1.398-1.398     c1.474-1.092,2.267-2.877,2.09-4.702c0.177-1.826-0.616-3.61-2.09-4.702c-2.29-2.597-6.252-2.845-8.849-0.555     c-0.197,0.173-0.382,0.359-0.555,0.555c-1.474,1.092-2.267,2.877-2.09,4.702C216.639,76.013,217.433,77.798,218.906,78.89z" fill="#1542b0" data-original="#000000" style="" class=""/>
			<path d="M140.016,201.665H307.2v-14.106l-38.661-25.078c-2.612-1.045-3.135-3.657-3.135-6.269V75.755     c0-18.808-9.404-55.902-40.751-75.755c-31.347,19.853-40.751,56.424-40.751,75.755v80.457c-0.121,2.703-1.467,5.203-3.657,6.792     l-40.229,24.555V201.665z M207.412,57.992c9.175-8.369,23.216-8.369,32.392,0c8.369,9.175,8.369,23.216,0,32.392     c-9.175,8.369-23.216,8.369-32.392,0C199.043,81.208,199.043,67.167,207.412,57.992z" fill="#1542b0" data-original="#000000" style="" class=""/>
			<path d="M296.229,394.971l-5.224,10.971c-3.027,6.16-9.333,10.025-16.196,9.927h-102.4c-6.863,0.098-13.168-3.767-16.196-9.927     l-5.224-10.971H25.078v28.212c0.829,13.523,12.052,24.058,25.6,24.033h345.861c13.548,0.025,24.771-10.51,25.6-24.033v-28.212     H296.229z" fill="#1542b0" data-original="#000000" style="" class=""/>
			<path d="M314.549,217.341c-0.012-0.001-0.023-0.002-0.035-0.002h-41.796l-7.837,26.122c-1.098,3.106-4.021,5.193-7.314,5.224     h-67.918c-3.294-0.031-6.216-2.119-7.314-5.224l-7.837-26.122h-41.796c-4.318,0.297-8.059-2.962-8.357-7.28     c-0.001-0.012-0.002-0.023-0.002-0.035v-27.167c0.154-2.825,1.727-5.381,4.18-6.792l9.927-5.747H77.322v177.633h292.571V170.318     h-61.127l9.927,6.269c2.531,1.055,4.18,3.528,4.18,6.269v27.167C322.595,214.344,318.868,217.619,314.549,217.341z      M197.486,303.543c0,4.328-3.509,7.837-7.837,7.837c-4.328,0-7.837-3.509-7.837-7.837v-26.645c0-4.328,3.509-7.837,7.837-7.837     c4.328,0,7.837,3.509,7.837,7.837V303.543z M228.833,329.143c0,4.328-3.509,7.837-7.837,7.837s-7.837-3.509-7.837-7.837v-52.245     c0-4.328,3.509-7.837,7.837-7.837s7.837,3.509,7.837,7.837V329.143z M265.404,303.543c0,4.328-3.509,7.837-7.837,7.837     s-7.837-3.509-7.837-7.837v-26.645c0-4.328,3.509-7.837,7.837-7.837s7.837,3.509,7.837,7.837V303.543z" fill="#1542b0" data-original="#000000" style="" class=""/>
			<polygon points="256.522,217.339 190.694,217.339 195.918,233.012 251.298,233.012    " fill="#1542b0" data-original="#000000" style="" class=""/>
			<path d="M162.482,384l7.837,15.151l2.09,1.045h102.4c1.045,0,1.567-0.522,2.09-1.567L284.735,384     c1.078-2.818,3.775-4.685,6.792-4.702h114.939V163.004c-0.829-13.523-12.052-24.058-25.6-24.033h-99.788v12.539l2.612,3.135     h94.563c4.123,0.275,7.323,3.705,7.314,7.837v193.306c0.009,4.132-3.191,7.561-7.314,7.837H68.963     c-4.123-0.275-7.323-3.705-7.314-7.837V162.482c-0.009-4.132,3.191-7.561,7.314-7.837h95.086l2.09-2.612v-13.061H66.351     c-13.548-0.025-24.771,10.51-25.6,24.033v216.294H155.69C158.756,379.15,161.541,381.078,162.482,384z" fill="#1542b0" data-original="#000000" style="" class=""/>
		</g>
	</g>
</g>
<g xmlns="http://www.w3.org/2000/svg">
</g>
<g xmlns="http://www.w3.org/2000/svg">
</g>
<g xmlns="http://www.w3.org/2000/svg">
</g>
<g xmlns="http://www.w3.org/2000/svg">
</g>
<g xmlns="http://www.w3.org/2000/svg">
</g>
<g xmlns="http://www.w3.org/2000/svg">
</g>
<g xmlns="http://www.w3.org/2000/svg">
</g>
<g xmlns="http://www.w3.org/2000/svg">
</g>
<g xmlns="http://www.w3.org/2000/svg">
</g>
<g xmlns="http://www.w3.org/2000/svg">
</g>
<g xmlns="http://www.w3.org/2000/svg">
</g>
<g xmlns="http://www.w3.org/2000/svg">
</g>
<g xmlns="http://www.w3.org/2000/svg">
</g>
<g xmlns="http://www.w3.org/2000/svg">
</g>
<g xmlns="http://www.w3.org/2000/svg">
</g>
</g></svg>
