<svg xmlns="http://www.w3.org/2000/svg" xmlns:xlink="http://www.w3.org/1999/xlink" width="329" height="332" viewBox="0 0 329 332">
  <defs>
    <filter id="Ellipse_6" x="0" y="0" width="329" height="332" filterUnits="userSpaceOnUse">
      <feOffset input="SourceAlpha"/>
      <feGaussianBlur stdDeviation="15" result="blur"/>
      <feFlood flood-color="#0f6fd5" flood-opacity="0.149"/>
      <feComposite operator="in" in2="blur"/>
      <feComposite in="SourceGraphic"/>
    </filter>
  </defs>
  <g id="Group_54" data-name="Group 54" transform="translate(-17281 -233)">
    <g transform="matrix(1, 0, 0, 1, 17281, 233)" filter="url(#Ellipse_6)">
      <ellipse id="Ellipse_6-2" data-name="Ellipse 6" cx="119.5" cy="121" rx="119.5" ry="121" transform="translate(45 45)" fill="#f1f7fc"/>
    </g>
    <g id="Ellipse_7" data-name="Ellipse 7" transform="translate(17367 320)" fill="none" stroke="#0f6fd5" stroke-width="3">
      <circle cx="79" cy="79" r="79" stroke="none"/>
      <circle cx="79" cy="79" r="77.5" fill="none"/>
    </g>
    <circle id="Ellipse_8" data-name="Ellipse 8" cx="79" cy="79" r="79" transform="translate(17354 320)" fill="#0f6fd5" opacity="0.05"/>
    <path id="team" d="M90.13,37.8H86.863l-4.869,2.562a7.227,7.227,0,0,0-1.733-.713l-6.124-1.533v-.7A10.209,10.209,0,0,0,78.5,29.074V26.533A10.444,10.444,0,0,0,68.636,16c-.276-.007-.548,0-.821.016L69.4,12.294l-7.7-7.7L57.167,7.552a24.589,24.589,0,0,0-5.441-2.257L50.6,0H39.526L38.405,5.3a24.561,24.561,0,0,0-5.441,2.257L28.426,4.6l-7.692,7.692,1.561,3.72c-.06,0-.116-.013-.176-.015a10.18,10.18,0,0,0-10.49,10.17v2.907a10.2,10.2,0,0,0,4.361,8.341v.7l-3.995,1L4.755,34.889H0V65.012l14.3,4.766h2.785l.348-1.218,4.384,2.631a4.526,4.526,0,0,0,4.365,4.385,4.526,4.526,0,0,0,4.361,4.361A4.526,4.526,0,0,0,34.905,84.3a4.521,4.521,0,0,0,7.069,3.59l1.288,1.137a4.426,4.426,0,0,0,2.925,1.1h.269a4.426,4.426,0,0,0,4.418-4.367A4.422,4.422,0,0,0,55.235,81.4,4.422,4.422,0,0,0,59.6,77.037a4.47,4.47,0,0,0,4.367-4.46,4.257,4.257,0,0,0-.022-.436L90.13,59.047ZM75.593,26.533v2.541a7.3,7.3,0,0,1-3.639,6.29l-.727.42.006,4.6L78.5,42.2,62.509,50.614V46.7a7.233,7.233,0,0,0-2.082-5.066l4.989-1.246v-4.6l-.725-.42a7.289,7.289,0,0,1-3.636-6.288V26.167A7.268,7.268,0,0,1,68.549,18.9a7.516,7.516,0,0,1,7.044,7.631ZM47.257,49.471l-6.581-2.1a17.952,17.952,0,0,0-9.315-.424l-.833.185V46.7a4.358,4.358,0,0,1,3.3-4.232l8.327-2.08v-4.6l-.725-.42A7.289,7.289,0,0,1,37.8,29.074V26.167A7.268,7.268,0,0,1,45.29,18.9a7.516,7.516,0,0,1,7.044,7.631v2.541a7.3,7.3,0,0,1-3.639,6.29l-.727.42.006,4.6,8.325,2.08A4.358,4.358,0,0,1,59.6,46.7v5.447l-.359.189h-.891l-8.937-2.554a9.164,9.164,0,0,0-2.158-.309Zm-16.4-27.714a15.98,15.98,0,0,1,28.363-.117,10.11,10.11,0,0,0-1.068,4.527v2.907a10.2,10.2,0,0,0,4.361,8.341v.7l-5.815,1.456-5.816-1.456v-.7a10.209,10.209,0,0,0,4.363-8.343V26.533a10.444,10.444,0,0,0-9.864-10.538A10.178,10.178,0,0,0,34.889,26.167v2.907a10.2,10.2,0,0,0,4.361,8.341v.7l-5.815,1.456-5.816-1.456v-.7a10.209,10.209,0,0,0,4.363-8.343V26.533a10.715,10.715,0,0,0-1.128-4.776Zm-6.686-8.792,4.644-4.644,4.088,2.66.782-.48a21.693,21.693,0,0,1,6.295-2.611l.894-.214,1.011-4.769h6.366l1.009,4.768.894.214A21.714,21.714,0,0,1,56.446,10.5l.782.48,4.088-2.66,4.639,4.64L64.306,16.82a10.161,10.161,0,0,0-3.069,2.04c-.06.058-.111.121-.169.18a18.879,18.879,0,0,0-32.063.087A10.254,10.254,0,0,0,25.8,16.854ZM18.9,40.385v-4.6l-.725-.419a7.289,7.289,0,0,1-3.636-6.288V26.167A7.268,7.268,0,0,1,22.03,18.9a7.516,7.516,0,0,1,7.044,7.631v2.541a7.3,7.3,0,0,1-3.639,6.29l-.727.42.006,4.6L29.7,41.632A7.233,7.233,0,0,0,27.62,46.7v1.077l-4.534,1.008.118-.412.055-2.687-7.667-4.473ZM2.907,37.8h1.06l10.455,6.1L9.146,65l-6.239-2.08ZM14.772,66.871l-2.861-.953,5.125-20.5,3.316,1.934v.415l-5.457,19.1Zm9.94,4.185A1.641,1.641,0,0,1,25.19,69.9l2.555-2.555a1.63,1.63,0,0,1,2.305,2.305L27.5,72.208a1.63,1.63,0,0,1-2.782-1.153Zm4.361,4.361a1.641,1.641,0,0,1,.477-1.153l2.555-2.555a1.63,1.63,0,0,1,2.305,2.305L31.856,76.57a1.63,1.63,0,0,1-2.782-1.153Zm4.361,4.361a1.641,1.641,0,0,1,.477-1.153l2.555-2.555a1.63,1.63,0,0,1,2.305,2.305l-2.555,2.555a1.63,1.63,0,0,1-2.782-1.153Zm5.991,5.991a1.63,1.63,0,0,1-1.153-2.782l2.555-2.555a1.63,1.63,0,0,1,2.305,2.305l-2.555,2.555A1.641,1.641,0,0,1,39.426,85.769Zm7.03,1.454h-.269a1.506,1.506,0,0,1-1-.38L44.1,85.884l1.092-1.092a4.52,4.52,0,0,0,.916-1.351l1.322,1.1a1.516,1.516,0,0,1-.971,2.681ZM59.492,74.139h-.251a1.56,1.56,0,0,1-1-.363l-7.883-6.569L48.5,69.441l7.655,6.378a1.517,1.517,0,0,1-.972,2.681h-.317a1.516,1.516,0,0,1-.97-.352L46,71.569,44.133,73.8l7.655,6.379a1.515,1.515,0,0,1-.971,2.679,2.4,2.4,0,0,1-1.53-.554l-3.245-2.7a4.522,4.522,0,0,0-3.9-2.54A4.526,4.526,0,0,0,37.778,72.7a4.526,4.526,0,0,0-4.361-4.361,4.527,4.527,0,0,0-7.728-3.049l-2.555,2.555a4.481,4.481,0,0,0-.407.5l-4.465-2.68,3.915-13.7,9.814-2.182a14.976,14.976,0,0,1,7.8.353l2.142.685-7.26,3.63a4.846,4.846,0,0,0-2.69,4.355v.287a4.868,4.868,0,0,0,7.375,4.175l5.413-3.246a3,3,0,0,1,3.486.336L60.538,71.412a1.565,1.565,0,0,1-1.046,2.727ZM87.222,57.25,62.732,69.5c-.079-.084-.163-.165-.25-.243L50.2,58.2a5.85,5.85,0,0,0-6.929-.67l-5.415,3.247a1.961,1.961,0,0,1-2.968-1.684v-.287a1.95,1.95,0,0,1,1.085-1.755L44.082,53a6.318,6.318,0,0,1,4.531-.42l9.135,2.609,2.213.055L87.222,40.893Zm0,0" transform="translate(17401 354)" fill="#0f4ebc"/>
  </g>
</svg>
